<svg clip-rule="evenodd" fill-rule="evenodd" stroke-linejoin="round" stroke-miterlimit="2" viewBox="0 0 24 24" xmlns="http://www.w3.org/2000/svg"><g fill-rule="nonzero"><path d="m15.949 7.408c-.332 0-.605.271-.605.601 0 .329.273.601.605.601s.605-.272.605-.601c0-.33-.273-.601-.605-.601m0 3.305c-1.513 0-2.723-1.202-2.723-2.704s1.21-2.704 2.723-2.704 2.723 1.202 2.723 2.704-1.21 2.704-2.723 2.704m0-8.713c-3.319 0-6.051 2.713-6.051 6.009s2.732 6.009 6.051 6.009 6.051-2.713 6.051-6.009-2.732-6.009-6.051-6.009z" fill="#000"/><path d="m32 71-18-19h72l-18 19c-9 10-18 18-18 18s-9-8-18-18zm0-45c9-11 18-19 18-19s9 8 18 19l18 18h-72z" fill="#000" transform="matrix(.141093 0 0 .141093 -.134035 9.78309)"/></g></svg>