<svg clip-rule="evenodd" fill-rule="evenodd" stroke-linejoin="round" stroke-miterlimit="2" viewBox="0 0 24 24" xmlns="http://www.w3.org/2000/svg"><g transform="matrix(.937061 0 0 .937061 .755263 .755263)"><path d="m317.264 56.914c33.725 0 61.106 27.381 61.106 61.107 0 33.725-27.381 61.106-61.106 61.106s-61.106-27.381-61.106-61.106c0-33.726 27.381-61.107 61.106-61.107zm0 30.553c16.863 0 30.553 13.691 30.553 30.554 0 16.862-13.69 30.553-30.553 30.553s-30.553-13.691-30.553-30.553c0-16.863 13.69-30.554 30.553-30.554z" transform="matrix(.0559052 0 0 .0559052 -.310639 -2.38637)"/><path d="m317.264 56.914c33.725 0 61.106 27.381 61.106 61.107 0 33.725-27.381 61.106-61.106 61.106s-61.106-27.381-61.106-61.106c0-33.726 27.381-61.107 61.106-61.107zm0 30.553c16.863 0 30.553 13.691 30.553 30.554 0 16.862-13.69 30.553-30.553 30.553s-30.553-13.691-30.553-30.553c0-16.863 13.69-30.554 30.553-30.554z" transform="matrix(.0561925 0 0 .0561925 1.46352 5.38283)"/><path d="m317.264 56.914c33.725 0 61.106 27.381 61.106 61.107 0 33.725-27.381 61.106-61.106 61.106s-61.106-27.381-61.106-61.106c0-33.726 27.381-61.107 61.106-61.107zm0 30.553c16.863 0 30.553 13.691 30.553 30.554 0 16.862-13.69 30.553-30.553 30.553s-30.553-13.691-30.553-30.553c0-16.863 13.69-30.554 30.553-30.554z" transform="matrix(.0560218 0 0 .0560218 -.30545 13.1775)"/><path d="m131.261 26.344c58.062 0 105.202 47.14 105.202 105.202 0 58.063-47.14 105.203-105.202 105.203-58.063 0-105.203-47.14-105.203-105.203 0-58.062 47.14-105.202 105.203-105.202zm0 52.601c29.031 0 52.601 23.57 52.601 52.601 0 29.032-23.57 52.602-52.601 52.602-29.032 0-52.602-23.57-52.602-52.602 0-29.031 23.57-52.601 52.602-52.601z" transform="matrix(.0536749 0 0 .0536749 .260831 4.95395)"/><path d="m93.081 40.377h77.736v20.018h-77.736z" transform="matrix(.0553705 -.0387582 .0524057 .0748676 3.38101 8.25711)"/><path d="m93.081 40.377h77.736v20.018h-77.736z" transform="matrix(.0659078 -.00002927 .00003951 .088954 5.89356 7.49705)"/><path d="m93.081 40.377h77.736v20.018h-77.736z" transform="matrix(.0533641 .0388823 -.0537194 .0737273 9.1512 7.76978)"/></g></svg>