<svg height="24" viewBox="0 0 24 24" width="24" xmlns="http://www.w3.org/2000/svg"><path d="m19 3h-14c-1.097 0-2 .903-2 2v14c0 1.097.903 2 2 2h14c1.097 0 2-.903 2-2v-14c0-1.097-.903-2-2-2m0 16h-14v-14h14z"/><path d="m57 426c-18-3-32-18-35-36-1-8-1-260 0-268 3-19 17-33 36-36 8-1 260-1 268 0 19 3 33 17 36 36 1 3 1 20 1 38v32h-21l-57.454.323-.104-41.268-90.637-.301h-94.977l-.426 105.246.159 105.999h94.977l93.633-1.168-.513-41.246 55.342.415h21v32c0 18 0 35-1 38-3 19-17 33-36 36-7 1-262 1-269 0zm348.751-81.088-.516-50.551h-192l-.235-38.361-.246-38.362h192l-.174-49.246v-32l49.354 60.202 45.772 59.406-40.26 50.504-53.695 70.408z" transform="matrix(.0253221 0 0 .0335252 5.47728 3.41755)"/></svg>